<?xml version="1.0" encoding="utf-8"?>
<!-- Generator: Adobe Illustrator 26.5.3, SVG Export Plug-In . SVG Version: 6.00 Build 0)  -->
<svg version="1.1" id="Layer_1" xmlns="http://www.w3.org/2000/svg" xmlns:xlink="http://www.w3.org/1999/xlink" x="0px" y="0px"
	 viewBox="0 0 80 80" style="enable-background:new 0 0 80 80;" xml:space="preserve">
<style type="text/css">
	.st0{fill:#101010;}
	.st1{fill:#FF0000;}
	.st2{fill:#FFFFFF;}
	.st3{fill-rule:evenodd;clip-rule:evenodd;}
	.st4{fill:#A72369;}
	.st5{fill:#90C53F;}
	.st6{fill:#00A7D4;}
	.st7{fill:#777BB3;}
	.st8{fill:#21759B;}
	.st9{fill-rule:evenodd;clip-rule:evenodd;fill:#FF0000;}
	.st10{fill:none;}
	.st11{fill:#F9F9F9;}
	.st12{fill:none;stroke:#000000;stroke-width:2.8774;stroke-linecap:round;stroke-linejoin:round;stroke-miterlimit:13.3333;}
	.st13{fill:none;stroke:#000000;stroke-width:2.4935;stroke-linecap:round;stroke-linejoin:round;stroke-miterlimit:13.3333;}
	.st14{fill:#231F20;}
	.st15{fill:#FF0000;stroke:#FF0000;stroke-width:1.0698;stroke-miterlimit:10;}
</style>
<path d="M71.96,5.97H8.32c-2.31,0-4.21,1.89-4.21,4.21V52.4c0,2.31,1.89,4.21,4.21,4.21h31.82V24.57c0-2.6,2.13-4.72,4.72-4.72
	h21.41c2.6,0,4.72,2.13,4.72,4.72v32.04h0.96c2.31,0,4.21-1.89,4.21-4.21V10.18C76.17,7.86,74.28,5.97,71.96,5.97z"/>
<path class="st2" d="M32.03,18.45H10.05c-0.9,0-1.64-0.73-1.64-1.64v0c0-0.9,0.73-1.64,1.64-1.64h21.98c0.9,0,1.64,0.73,1.64,1.64v0
	C33.67,17.72,32.94,18.45,32.03,18.45z"/>
<path class="st2" d="M32.03,25.13H10.05c-0.9,0-1.64-0.73-1.64-1.64v0c0-0.9,0.73-1.64,1.64-1.64h21.98c0.9,0,1.64,0.73,1.64,1.64v0
	C33.67,24.4,32.94,25.13,32.03,25.13z"/>
<path class="st2" d="M28.03,31.82H10.05c-0.9,0-1.64-0.73-1.64-1.64v0c0-0.9,0.73-1.64,1.64-1.64h17.97c0.9,0,1.64,0.73,1.64,1.64v0
	C29.66,31.08,28.93,31.82,28.03,31.82z"/>
<path d="M71.15,4.85H9.04c-3.3,0-5.97,2.68-5.97,5.97v45.39c0,3.3,2.68,5.97,5.97,5.97H40.1V50.24H5.45V10.82
	c0-1.97,1.61-3.58,3.58-3.58h62.12c1.97,0,3.58,1.61,3.58,3.58v39.42h-3.58v11.95c3.3,0,5.97-2.68,5.97-5.97V10.82
	C77.13,7.52,74.45,4.85,71.15,4.85z"/>
<path d="M54.43,71.74h-4.99l-0.48-2.39h-1.7c-3.12,0-5.78-1.99-6.75-4.78h-8.33l-1.43,7.17h-4.99c-1.97,0-3.58,1.61-3.58,3.58v2.39
	c0,0.66,0.54,1.19,1.19,1.19h33.45c0.66,0,1.19-0.54,1.19-1.19v-2.39C58.01,73.36,56.4,71.74,54.43,71.74z"/>
<path d="M63.99,21.57H47.26c-2.64,0-4.78,2.14-4.78,4.78v35.84c0,2.63,2.14,4.78,4.78,4.78h16.72c2.64,0,4.78-2.14,4.78-4.78V26.35
	C68.77,23.71,66.62,21.57,63.99,21.57z"/>
<path class="st2" d="M66.38,62.19c0,1.32-1.07,2.39-2.39,2.39H47.26c-1.32,0-2.39-1.07-2.39-2.39V26.35c0-1.32,1.07-2.39,2.39-2.39
	h2.72l0.92,2.77c0.16,0.49,0.62,0.82,1.13,0.82h7.17c0.51,0,0.97-0.33,1.13-0.82l0.92-2.77h2.72c1.32,0,2.39,1.07,2.39,2.39V62.19z"
	/>
<path d="M58.01,62.19c0,0.66-0.53,1.19-1.19,1.19h-2.39c-0.66,0-1.19-0.53-1.19-1.19s0.53-1.19,1.19-1.19h2.39
	C57.48,60.99,58.01,61.53,58.01,62.19z"/>
<circle class="st1" cx="55.63" cy="44.27" r="8.36"/>
<path class="st2" d="M60.06,42.73l-4.78,4.78c-0.24,0.23-0.54,0.35-0.85,0.35s-0.61-0.12-0.85-0.35l-2.39-2.39
	c-0.47-0.47-0.47-1.23,0-1.7c0.47-0.47,1.23-0.47,1.7,0l1.54,1.55l3.93-3.94c0.47-0.47,1.23-0.47,1.7,0
	C60.52,41.5,60.52,42.26,60.06,42.73z"/>
</svg>
