<?xml version="1.0" encoding="utf-8"?>
<!-- Generator: Adobe Illustrator 26.5.3, SVG Export Plug-In . SVG Version: 6.00 Build 0)  -->
<svg version="1.1" id="Layer_1" xmlns="http://www.w3.org/2000/svg" xmlns:xlink="http://www.w3.org/1999/xlink" x="0px" y="0px"
	 viewBox="0 0 80 80" style="enable-background:new 0 0 80 80;" xml:space="preserve">
<style type="text/css">
	.st0{fill:#101010;}
	.st1{fill:#FF0000;}
	.st2{fill:#FFFFFF;}
	.st3{fill-rule:evenodd;clip-rule:evenodd;}
	.st4{fill:#A72369;}
	.st5{fill:#90C53F;}
	.st6{fill:#00A7D4;}
	.st7{fill:#777BB3;}
	.st8{fill:#21759B;}
	.st9{fill-rule:evenodd;clip-rule:evenodd;fill:#FF0000;}
	.st10{fill:none;}
	.st11{fill:#F9F9F9;}
	.st12{fill:none;stroke:#000000;stroke-width:2.8774;stroke-linecap:round;stroke-linejoin:round;stroke-miterlimit:13.3333;}
	.st13{fill:none;stroke:#000000;stroke-width:2.4935;stroke-linecap:round;stroke-linejoin:round;stroke-miterlimit:13.3333;}
	.st14{fill:#231F20;}
	.st15{fill:#FF0000;stroke:#FF0000;stroke-width:1.0698;stroke-miterlimit:10;}
</style>
<path d="M26.92,58.3H11.13c-1.45,0-2.63-1.18-2.63-2.63V24.1h60.51c1.45,0,2.63-1.18,2.63-2.63V10.94c0-4.34-3.55-7.89-7.89-7.89
	H11.13c-4.34,0-7.89,3.55-7.89,7.89v10.52v34.2c0,4.34,3.55,7.89,7.89,7.89h15.78c1.45,0,2.63-1.18,2.63-2.63S28.36,58.3,26.92,58.3
	z M50.59,10.94h7.89c1.45,0,2.63,1.18,2.63,2.63s-1.18,2.63-2.63,2.63h-7.89c-1.45,0-2.63-1.18-2.63-2.63S49.15,10.94,50.59,10.94z
	 M24.29,10.94c1.45,0,2.63,1.18,2.63,2.63s-1.18,2.63-2.63,2.63s-2.63-1.18-2.63-2.63S22.84,10.94,24.29,10.94z M16.39,10.94
	c1.45,0,2.63,1.18,2.63,2.63s-1.18,2.63-2.63,2.63s-2.63-1.18-2.63-2.63S14.95,10.94,16.39,10.94z"/>
<path d="M25.91,27.01c-1.19,0-2.16,0.97-2.16,2.16c0,1.19,0.97,2.16,2.16,2.16h3.84c0.65,0,1.22,0.41,1.42,1.02l7.12,21.37
	c0.32,0.95,0.36,1.97,0.11,2.94l-0.59,2.35c-0.86,3.44,1.82,6.88,5.37,6.88h25.92c1.19,0,2.16-0.97,2.16-2.16
	c0-1.19-0.97-2.16-2.16-2.16H43.19c-0.84,0-1.38-0.69-1.18-1.51l0.44-1.77c0.15-0.62,0.71-1.05,1.34-1.05h23.15
	c0.93,0,1.76-0.59,2.05-1.48l5.76-17.28c0.47-1.4-0.58-2.84-2.05-2.84h-34.8c-0.65,0-1.22-0.41-1.42-1.02l-2.05-6.14
	c-0.29-0.88-1.12-1.48-2.05-1.48H25.91z"/>
<circle class="st1" cx="42.16" cy="72.79" r="4.32"/>
<circle class="st1" cx="68.08" cy="72.79" r="4.32"/>
</svg>
