<?xml version="1.0" encoding="utf-8"?>
<!-- Generator: Adobe Illustrator 26.5.3, SVG Export Plug-In . SVG Version: 6.00 Build 0)  -->
<svg version="1.1" id="Layer_1" xmlns="http://www.w3.org/2000/svg" xmlns:xlink="http://www.w3.org/1999/xlink" x="0px" y="0px"
	 viewBox="0 0 80 80" style="enable-background:new 0 0 80 80;" xml:space="preserve">
<style type="text/css">
	.st0{fill:#101010;}
	.st1{fill:#FF0000;}
	.st2{fill:#FFFFFF;}
	.st3{fill-rule:evenodd;clip-rule:evenodd;}
	.st4{fill:#A72369;}
	.st5{fill:#90C53F;}
	.st6{fill:#00A7D4;}
	.st7{fill:#777BB3;}
	.st8{fill:#21759B;}
	.st9{fill-rule:evenodd;clip-rule:evenodd;fill:#FF0000;}
	.st10{fill:none;}
	.st11{fill:#F9F9F9;}
	.st12{fill:none;stroke:#000000;stroke-width:2.8774;stroke-linecap:round;stroke-linejoin:round;stroke-miterlimit:13.3333;}
	.st13{fill:none;stroke:#000000;stroke-width:2.4935;stroke-linecap:round;stroke-linejoin:round;stroke-miterlimit:13.3333;}
	.st14{fill:#231F20;}
	.st15{fill:#FF0000;stroke:#FF0000;stroke-width:1.0698;stroke-miterlimit:10;}
</style>
<rect x="3.04" y="5.4" class="st10" width="73.66" height="73.66"/>
<path id="path2700" class="st11" d="M72.38,70.14H7.35c-1.59,0-2.88-1.29-2.88-2.88V9.72c0-1.59,1.29-2.88,2.88-2.88h65.03
	c1.59,0,2.88,1.29,2.88,2.88v57.55C75.26,68.85,73.97,70.14,72.38,70.14"/>
<path id="path2704" class="st2" d="M72.38,6.84H7.35c-1.59,0-2.88,1.29-2.88,2.88v8.63h70.79V9.72C75.26,8.13,73.97,6.84,72.38,6.84
	"/>
<path id="path2708" d="M75.26,18.35H4.48V9.72c0-1.59,1.29-2.88,2.88-2.88h65.03c1.59,0,2.88,1.29,2.88,2.88V18.35z"/>
<path id="path2712" class="st12" d="M75.26,50.72v16.55c0,1.59-1.29,2.88-2.88,2.88h-6.44"/>
<path id="path2716" class="st12" d="M36.24,70.14H7.35c-1.59,0-2.88-1.29-2.88-2.88V9.72c0-1.59,1.29-2.88,2.88-2.88h65.03
	c1.59,0,2.88,1.29,2.88,2.88v28.06"/>
<path id="path2720" class="st12" d="M67.49,12.59H36.42"/>
<path id="path2724" class="st13" d="M17.22,12.82L17.22,12.82"/>
<path id="path2728" class="st13" d="M11.74,12.82L11.74,12.82"/>
<path id="path2732" class="st12" d="M24.91,12.59L24.91,12.59"/>
<path id="path2736" class="st12" d="M4.91,18.35h69.92"/>
<path id="path2744" class="st2" d="M59.03,59.78c0-4.38-3.55-7.94-7.94-7.94c-4.38,0-7.94,3.55-7.94,7.94s3.55,7.94,7.94,7.94
	C55.47,67.72,59.03,64.17,59.03,59.78"/>
<path id="path2748" d="M68.93,62.95v-6.33h-3.07c-0.39-1.82-1.11-3.53-2.09-5.04l2.17-2.17l-4.48-4.48L59.3,47.1
	c-1.52-0.98-3.22-1.7-5.04-2.09v-3.07h-6.33v3.07c-1.82,0.39-3.53,1.11-5.04,2.09l-2.17-2.17l-4.48,4.48l2.17,2.17
	c-0.98,1.52-1.7,3.22-2.09,5.04h-3.07v6.33h3.07c0.39,1.82,1.11,3.53,2.09,5.04l-2.17,2.17l4.48,4.48l2.17-2.17
	c1.52,0.98,3.22,1.7,5.04,2.09v3.07h6.33v-3.07c1.82-0.39,3.53-1.11,5.04-2.09l2.17,2.17l4.48-4.48l-2.17-2.17
	c0.98-1.52,1.7-3.22,2.09-5.04H68.93z"/>
<path id="path2752" class="st2" d="M59.03,59.78c0-4.38-3.55-7.94-7.94-7.94c-4.38,0-7.94,3.55-7.94,7.94s3.55,7.94,7.94,7.94
	C55.47,67.72,59.03,64.17,59.03,59.78"/>
<path id="path2756" class="st12" d="M59.03,59.78c0-4.38-3.55-7.94-7.94-7.94c-4.38,0-7.94,3.55-7.94,7.94s3.55,7.94,7.94,7.94
	C55.47,67.72,59.03,64.17,59.03,59.78z"/>
<g id="path2760">
	<path d="M54.26,79.06h-6.33c-0.79,0-1.44-0.64-1.44-1.44v-1.95c-1.18-0.34-2.31-0.81-3.38-1.4l-1.38,1.38
		c-0.56,0.56-1.47,0.56-2.04,0l-4.48-4.48c-0.56-0.56-0.56-1.47,0-2.04l1.38-1.38c-0.59-1.07-1.06-2.2-1.4-3.38h-1.95
		c-0.79,0-1.44-0.64-1.44-1.44v-6.33c0-0.79,0.64-1.44,1.44-1.44h1.95C35.54,54,36,52.87,36.6,51.8l-1.38-1.38
		c-0.56-0.56-0.56-1.47,0-2.04l4.48-4.48c0.27-0.27,0.64-0.42,1.02-0.42l0,0c0.38,0,0.75,0.15,1.02,0.42l1.38,1.38
		c1.07-0.59,2.2-1.06,3.38-1.4v-1.95c0-0.79,0.64-1.44,1.44-1.44h6.33c0.79,0,1.44,0.64,1.44,1.44v1.95
		c1.18,0.34,2.31,0.81,3.38,1.4l1.38-1.38c0.54-0.54,1.49-0.54,2.04,0l4.48,4.48c0.27,0.27,0.42,0.64,0.42,1.02
		s-0.15,0.75-0.42,1.02l-1.38,1.38c0.59,1.07,1.06,2.2,1.4,3.38h1.95c0.79,0,1.44,0.64,1.44,1.44v6.33c0,0.79-0.64,1.44-1.44,1.44
		h-1.95c-0.34,1.18-0.81,2.31-1.4,3.38l1.38,1.38c0.27,0.27,0.42,0.64,0.42,1.02s-0.15,0.75-0.42,1.02l-4.48,4.48
		c-0.56,0.56-1.47,0.56-2.04,0l-1.38-1.38c-1.07,0.59-2.2,1.06-3.38,1.4v1.95C55.7,78.42,55.05,79.06,54.26,79.06z M49.36,76.19
		h3.45v-1.63c0-0.68,0.47-1.27,1.14-1.41c1.63-0.35,3.16-0.98,4.56-1.89c0.57-0.37,1.32-0.29,1.8,0.19l1.15,1.15l2.44-2.44
		l-1.15-1.15c-0.48-0.48-0.56-1.23-0.19-1.8c0.91-1.4,1.54-2.93,1.89-4.56c0.14-0.66,0.73-1.14,1.41-1.14h1.63v-3.45h-1.63
		c-0.68,0-1.27-0.47-1.41-1.14c-0.35-1.63-0.98-3.16-1.89-4.56c-0.37-0.57-0.29-1.32,0.19-1.8l1.15-1.15l-2.44-2.44l-1.15,1.15
		c-0.48,0.48-1.23,0.56-1.8,0.19c-1.4-0.91-2.94-1.54-4.56-1.89c-0.66-0.14-1.14-0.73-1.14-1.41v-1.63h-3.45v1.63
		c0,0.68-0.47,1.27-1.14,1.41c-1.62,0.35-3.16,0.98-4.56,1.89c-0.57,0.37-1.32,0.29-1.8-0.19l-1.15-1.15l-2.44,2.44l1.15,1.15
		c0.48,0.48,0.56,1.23,0.19,1.8c-0.91,1.4-1.54,2.93-1.89,4.56c-0.14,0.66-0.73,1.14-1.41,1.14h-1.63v3.45h1.63
		c0.68,0,1.27,0.47,1.41,1.14c0.35,1.63,0.98,3.16,1.89,4.56c0.37,0.57,0.29,1.32-0.19,1.8l-1.15,1.15l2.44,2.44l1.15-1.15
		c0.48-0.48,1.23-0.56,1.8-0.19c1.4,0.91,2.93,1.54,4.56,1.89c0.66,0.14,1.14,0.73,1.14,1.41V76.19z"/>
</g>
<g>
	<path id="path2780" class="st15" d="M34.15,35.25c-0.2-0.67-0.47-1.31-0.79-1.9l1.97-2.12l-5.01-4.68l-1.98,2.12
		c-1.24-0.56-2.6-0.88-3.99-0.93l-0.84-2.77l-6.56,2l0.84,2.77c-1.13,0.82-2.07,1.84-2.79,3l-2.82-0.65l-1.54,6.68l2.82,0.65
		c0.07,0.67,0.2,1.35,0.41,2.02c0.2,0.67,0.47,1.31,0.79,1.9l-1.97,2.12l5.01,4.68l1.98-2.12c1.24,0.56,2.6,0.88,3.99,0.93
		l0.84,2.77l6.56-2l-0.84-2.77c1.13-0.82,2.07-1.84,2.79-3l2.82,0.65l1.54-6.68l-2.82-0.65C34.49,36.6,34.35,35.93,34.15,35.25"/>
	<path id="path2784" class="st2" d="M27.54,37.27c-0.6-1.95-2.66-3.05-4.61-2.45s-3.05,2.66-2.45,4.61s2.66,3.05,4.61,2.45
		S28.14,39.22,27.54,37.27"/>
	<g id="path2804">
		<path class="st2" d="M25.54,43.36c-2.76,0.84-5.69-0.72-6.53-3.48s0.72-5.69,3.48-6.53s5.69,0.72,6.53,3.48
			S28.3,42.51,25.54,43.36z M23.38,36.29c-1.14,0.35-1.78,1.55-1.43,2.69c0.35,1.14,1.55,1.78,2.69,1.43s1.78-1.55,1.43-2.69
			C25.72,36.59,24.52,35.94,23.38,36.29z"/>
	</g>
</g>
<path id="path2808" class="st12" d="M75.26,44.25L75.26,44.25"/>
<circle class="st11" cx="10.14" cy="12.6" r="1.72"/>
<circle class="st11" cx="14.75" cy="12.6" r="1.72"/>
<circle class="st11" cx="19.37" cy="12.6" r="1.72"/>
</svg>
