<?xml version="1.0" encoding="utf-8"?>
<!-- Generator: Adobe Illustrator 27.7.0, SVG Export Plug-In . SVG Version: 6.00 Build 0)  -->
<svg version="1.1" id="Layer_1" xmlns="http://www.w3.org/2000/svg" xmlns:xlink="http://www.w3.org/1999/xlink" x="0px" y="0px"
	 viewBox="0 0 80 80" style="enable-background:new 0 0 80 80;" xml:space="preserve">
<style type="text/css">
	.st0{fill:#101010;}
	.st1{fill:#FF0000;}
	.st2{fill:#FFFFFF;}
	.st3{fill-rule:evenodd;clip-rule:evenodd;}
	.st4{fill:#A72369;}
	.st5{fill-rule:evenodd;clip-rule:evenodd;fill:#FF0000;}
	.st6{fill:none;}
	.st7{fill:#F9F9F9;}
	.st8{fill:none;stroke:#000000;stroke-width:2.8774;stroke-linecap:round;stroke-linejoin:round;stroke-miterlimit:13.3333;}
	.st9{fill:none;stroke:#000000;stroke-width:2.4935;stroke-linecap:round;stroke-linejoin:round;stroke-miterlimit:13.3333;}
	.st10{fill:#231F20;}
	.st11{fill:#FF0000;stroke:#FF0000;stroke-width:1.0698;stroke-miterlimit:10;}
</style>
<path d="M48.82,63.49v4.31h6.39c1.28,0,2.32,1.04,2.32,2.32v3.51H26.32v-3.51c0-1.28,1.04-2.32,2.32-2.32h4.59v-4.31H11.05
	c-2.37,0-4.28-1.91-4.28-4.17v-36.3c-0.03-0.12-0.04-0.25-0.04-0.37v-7.26c0-2.72,2.21-4.93,4.93-4.93h57.86
	c2.72,0,4.92,2.21,4.92,4.93V23h0.01l0.28,33.83c0,0-5.66-4.44-6.68-5.22l-0.58-1.34c0,0-0.31-7.09-2.55-9.49
	c-2.23-2.41-4.98-4.53-8.54-3.9c-3.55,0.63-6.07,2.46-6.99,4.93c-0.92,2.46-1.61,8.37,3.15,10.95c4.76,2.58,8.68,2.45,8.68,2.45
	l0.56-0.04c2.2,2.18,9.68,8.32,9.68,8.32H48.82z"/>
<path class="st2" d="M36.19,24.27H14.21c-0.9,0-1.64-0.73-1.64-1.64v0c0-0.9,0.73-1.64,1.64-1.64h21.98c0.9,0,1.64,0.73,1.64,1.64v0
	C37.82,23.53,37.09,24.27,36.19,24.27z"/>
<path class="st2" d="M36.19,30.95H14.21c-0.9,0-1.64-0.73-1.64-1.64v0c0-0.9,0.73-1.64,1.64-1.64h21.98c0.9,0,1.64,0.73,1.64,1.64v0
	C37.82,30.22,37.09,30.95,36.19,30.95z"/>
<path class="st2" d="M32.18,37.63H14.21c-0.9,0-1.64-0.73-1.64-1.64v0c0-0.9,0.73-1.64,1.64-1.64h17.97c0.9,0,1.64,0.73,1.64,1.64v0
	C33.81,36.9,33.08,37.63,32.18,37.63z"/>
<path class="st11" d="M49.9,46.16c0.02,4.21,3.22,7.74,7.46,8.27c0.8,0.1,1.6,0.04,2.38-0.11c0.37-0.07,0.63,0,0.89,0.28
	c0.59,0.63,1.21,1.23,1.82,1.83c0.18,0.18,0.19,0.27-0.06,0.37c-0.68,0.28-1.2,0.76-1.69,1.29c-0.18,0.19-0.3,0.43-0.38,0.68
	c-0.06,0.2-0.12,0.4-0.2,0.6c-0.27,0.71-0.79,1.07-1.55,1.06c-0.25,0-0.5,0-0.76,0c-0.67,0-1.14-0.33-1.41-0.93
	c-0.06-0.13-0.13-0.27-0.16-0.41c-0.13-0.7-0.56-1.18-1.11-1.59c-0.71-0.54-1.5-0.93-2.38-1.12c-0.73-0.17-1.37,0.03-1.97,0.44
	c-0.11,0.08-0.22,0.16-0.34,0.22c-0.5,0.28-0.99,0.3-1.48-0.04c-0.48-0.33-0.91-0.72-1.28-1.17c-0.49-0.6-0.51-1.32-0.06-1.87
	c1.11-1.37,0.22-4.16-1.29-5.18c-0.31-0.21-0.65-0.34-1.01-0.43c-0.99-0.25-1.36-0.72-1.38-1.75c-0.01-0.43-0.02-0.86,0.04-1.29
	c0.09-0.59,0.42-0.97,0.97-1.17c0.17-0.06,0.34-0.11,0.51-0.15c0.41-0.1,0.77-0.29,1.08-0.57c1.03-0.94,1.56-2.1,1.54-3.49
	c-0.01-0.41-0.11-0.79-0.32-1.14c-0.14-0.22-0.26-0.46-0.34-0.71c-0.19-0.55-0.12-1.06,0.24-1.52c0.35-0.44,0.76-0.81,1.23-1.12
	c0.54-0.37,1.1-0.37,1.66-0.02c0.22,0.14,0.42,0.32,0.66,0.42c0.56,0.23,1.12,0.31,1.72,0.13c1.02-0.31,1.92-0.78,2.68-1.54
	c0.27-0.27,0.47-0.59,0.56-0.97c0.06-0.25,0.15-0.48,0.27-0.71c0.27-0.5,0.7-0.77,1.27-0.8c0.34-0.01,0.67-0.01,1.01,0
	c0.63,0.02,1.07,0.34,1.33,0.91c0.06,0.13,0.12,0.27,0.15,0.41c0.16,0.74,0.63,1.24,1.21,1.67c0.77,0.56,1.61,0.96,2.54,1.13
	c0.58,0.11,1.13-0.11,1.6-0.44c0.96-0.66,1.5-0.65,2.4,0.11c0.22,0.19,0.44,0.39,0.64,0.6c0.57,0.59,0.66,1.19,0.33,1.94
	c-0.05,0.11-0.09,0.21-0.16,0.31c-0.46,0.7-0.51,1.46-0.36,2.24c0.2,1.02,0.68,1.89,1.47,2.58c0.34,0.29,0.73,0.48,1.17,0.59
	c1.04,0.24,1.41,0.71,1.41,1.77c0,0.33,0.01,0.65,0,0.98c-0.03,0.85-0.37,1.3-1.19,1.53c-0.51,0.14-1.01,0.28-1.44,0.62
	c-0.65,0.52-1.04,1.2-1.28,1.98c-0.1,0.35-0.12,0.35-0.39,0.09c-0.63-0.62-1.25-1.25-1.88-1.87c-0.16-0.16-0.21-0.3-0.14-0.53
	c0.86-2.79,0.31-5.33-1.5-7.58c-1.55-1.94-3.63-2.97-6.11-3.09c-4.24-0.21-8.1,3.1-8.61,7.33C49.91,45.58,49.89,45.9,49.9,46.16z"/>
<path d="M57.43,41.44c1.81-0.09,3.39,0.44,4.58,1.84c1.09,1.27,1.52,2.76,1.25,4.43c-0.07,0.4,0,0.69,0.32,0.98
	c3.38,3.03,11.4,9.83,14.77,12.87c0.18,0.16,0.34,0.33,0.51,0.49c0.9,0.85,0.88,2.44,0.21,3.36c-0.7,0.95-2.14,1.31-3.22,0.78
	c-0.33-0.16-0.6-0.4-0.87-0.64c-3.41-3.09-11.48-9.92-14.89-13.02c-0.3-0.27-0.59-0.31-0.96-0.26c-1.61,0.25-3.13,0.03-4.46-0.96
	c-1.7-1.27-2.38-3.02-2.33-5.09c0.01-0.31,0.11-0.61,0.22-0.9c0.09-0.24,0.19-0.24,0.37-0.08c0.99,0.9,1.99,1.8,2.98,2.69
	c0.11,0.1,0.22,0.19,0.34,0.27c0.35,0.21,0.72,0.18,1.02-0.12c0.55-0.57,1.08-1.16,1.59-1.77c0.32-0.38,0.27-0.82-0.09-1.16
	c-1.01-0.95-2.03-1.86-3.09-2.76c-0.06-0.05-0.12-0.11-0.18-0.17c-0.15-0.15-0.12-0.26,0.06-0.36c0.52-0.29,1.07-0.41,1.66-0.42
	C57.31,41.45,57.37,41.44,57.43,41.44z M77.02,62.71c-0.7-0.05-1.22,0.68-1.18,1.27c0.05,0.7,0.62,1.24,1.31,1.2
	c0.69-0.04,1.21-0.64,1.18-1.33C78.3,63.22,77.73,62.6,77.02,62.71z"/>
</svg>
