<?xml version="1.0" encoding="utf-8"?>
<!-- Generator: Adobe Illustrator 26.5.3, SVG Export Plug-In . SVG Version: 6.00 Build 0)  -->
<svg version="1.1" id="Layer_1" xmlns="http://www.w3.org/2000/svg" xmlns:xlink="http://www.w3.org/1999/xlink" x="0px" y="0px"
	 viewBox="0 0 80 80" style="enable-background:new 0 0 80 80;" xml:space="preserve">
<style type="text/css">
	.st0{fill:#101010;}
	.st1{fill:#FF0000;}
	.st2{fill:#FFFFFF;}
	.st3{fill-rule:evenodd;clip-rule:evenodd;}
	.st4{fill:#A72369;}
	.st5{fill:#90C53F;}
	.st6{fill:#00A7D4;}
	.st7{fill:#777BB3;}
	.st8{fill:#21759B;}
	.st9{fill-rule:evenodd;clip-rule:evenodd;fill:#FF0000;}
	.st10{fill:none;}
	.st11{fill:#F9F9F9;}
	.st12{fill:none;stroke:#000000;stroke-width:2.8774;stroke-linecap:round;stroke-linejoin:round;stroke-miterlimit:13.3333;}
	.st13{fill:none;stroke:#000000;stroke-width:2.4935;stroke-linecap:round;stroke-linejoin:round;stroke-miterlimit:13.3333;}
	.st14{fill:#231F20;}
	.st15{fill:#FF0000;stroke:#FF0000;stroke-width:1.0698;stroke-miterlimit:10;}
</style>
<g>
	<g>
		<path class="st0" d="M63.34,52.57H28.9c-1.12,0-1.83-0.91-1.56-2l0.58-2.35c1.17-2.64-0.28-6.42-0.28-6.42s-7.51-24.64-7.65-25.03
			l-1.6-4.82l-1.11-3.34c-0.4-1.17-1.49-1.96-2.73-1.96H5.94c-1.58,0-2.87,1.29-2.87,2.87c0,1.59,1.29,2.87,2.87,2.87h5.11
			c0.85,0,1.62,0.55,1.89,1.36l9.46,28.4c0.42,1.26,0.47,2.61,0.15,3.9l-0.78,3.13c-1.14,4.57,2.42,9.13,7.13,9.13h34.44
			c1.59,0,2.87-1.28,2.87-2.87C66.21,53.86,64.93,52.57,63.34,52.57z"/>
		<circle class="st1" cx="27.27" cy="66.61" r="5.74"/>
		<circle class="st1" cx="61.71" cy="66.61" r="5.74"/>
	</g>
	<path class="st0" d="M72.7,21.55l-7.65,22.96c-0.4,1.17-1.49,1.96-2.73,1.96c0,0-26.11,0.06-28.7,0c-2.6-0.06-3.3-2.17-3.3-2.17
		l-7.17-24.84c0,0-0.26-1.76,1.67-1.69s45.15,0,45.15,0C71.93,17.77,73.32,19.69,72.7,21.55z"/>
</g>
</svg>
